<?xml version="1.0" encoding="UTF-8" standalone="no"?>
<!-- Generator: Adobe Illustrator 19.0.0, SVG Export Plug-In . SVG Version: 6.00 Build 0)  -->

<svg
   xmlns:dc="http://purl.org/dc/elements/1.1/"
   xmlns:cc="http://creativecommons.org/ns#"
   xmlns:rdf="http://www.w3.org/1999/02/22-rdf-syntax-ns#"
   xmlns:svg="http://www.w3.org/2000/svg"
   xmlns="http://www.w3.org/2000/svg"
   xmlns:sodipodi="http://sodipodi.sourceforge.net/DTD/sodipodi-0.dtd"
   xmlns:inkscape="http://www.inkscape.org/namespaces/inkscape"
   version="1.1"
   id="Layer_1"
   x="0px"
   y="0px"
   viewBox="0 0 50 50"
   xml:space="preserve"
   sodipodi:docname="Email-03.svg"
   width="50"
   height="50"
   inkscape:version="0.92.4 5da689c313, 2019-01-14"><metadata
   id="metadata14"><rdf:RDF><cc:Work
       rdf:about=""><dc:format>image/svg+xml</dc:format><dc:type
         rdf:resource="http://purl.org/dc/dcmitype/StillImage" /><dc:title></dc:title></cc:Work></rdf:RDF></metadata><defs
   id="defs12" /><sodipodi:namedview
   pagecolor="#ffffff"
   bordercolor="#666666"
   borderopacity="1"
   objecttolerance="10"
   gridtolerance="10"
   guidetolerance="10"
   inkscape:pageopacity="0"
   inkscape:pageshadow="2"
   inkscape:window-width="1366"
   inkscape:window-height="703"
   id="namedview10"
   showgrid="false"
   inkscape:zoom="3.4766083"
   inkscape:cx="42.638565"
   inkscape:cy="37.872845"
   inkscape:window-x="0"
   inkscape:window-y="0"
   inkscape:window-maximized="1"
   inkscape:current-layer="Layer_1" />
<style
   type="text/css"
   id="style2">
	.st0{fill:#77B3D4;}
	.st1{fill:#6695B0;}
	.st2{fill:#FFFFFF;}
</style>
<g
   id="XMLID_1_"
   transform="matrix(0.52500968,0,0,0.52500968,-0.20046459,-0.20046459)">
	<path
   id="XMLID_3_"
   class="st0"
   d="M 48,15.5 C 65.9,15.5 80.5,30.1 80.5,48 80.5,65.9 65.9,80.5 48,80.5 30.1,80.5 15.5,65.9 15.5,48 15.5,30.1 30.1,15.5 48,15.5"
   inkscape:connector-curvature="0"
   style="fill:#77b3d4" />
	<path
   id="XMLID_6_"
   class="st1"
   d="m 48,57.5 c -4.2,0 -7.5,-3.4 -7.5,-7.5 0,-4.2 3.4,-7.5 7.5,-7.5 4.2,0 7.5,3.4 7.5,7.5 0,4.2 -3.3,7.5 -7.5,7.5 m 0,-29.8 c -12.3,0 -22.3,10.1 -22.3,22.3 0,12.3 10.1,22.3 22.3,22.3 3.6,0 7.1,-0.8 10.3,-2.4 1,-0.5 1.4,-1.7 0.9,-2.7 -0.4,-0.7 -1.1,-1.1 -1.8,-1.1 -0.3,0 -0.6,0.1 -0.9,0.2 -2.6,1.3 -5.4,2 -8.3,2 C 38,68.3 29.8,60.1 29.8,50 29.8,39.9 38,31.7 48.1,31.7 c 10.1,0 18.3,8.3 18.3,18.3 0,3 -0.8,6.1 -2.2,8.7 -1.8,-1.4 -4.5,-4.3 -4.5,-8.6 v -8.9 c 0,-1.1 -0.9,-2 -2,-2 -1.1,0 -2,0.9 -2,2 v 0.1 c -2,-1.7 -4.7,-2.8 -7.5,-2.8 -6.4,0 -11.6,5.2 -11.6,11.6 0,6.4 5.1,11.6 11.5,11.6 3.8,0 7.1,-1.8 9.2,-4.7 2.3,4.3 6.3,6.4 6.5,6.5 0.3,0.2 0.6,0.2 1,0.2 0.6,0 1.3,-0.3 1.7,-0.9 2.6,-3.8 4,-8.1 4,-12.8 C 70.3,37.7 60.3,27.7 48,27.7"
   inkscape:connector-curvature="0"
   style="fill:#6695b0" />
	<path
   id="XMLID_7_"
   class="st2"
   d="M 48,70.3 C 35.7,70.3 25.7,60.2 25.7,48 25.7,35.7 35.8,25.7 48,25.7 c 12.2,0 22.3,10 22.3,22.3 0,4.6 -1.4,9 -4,12.8 -0.6,0.8 -1.7,1.1 -2.6,0.6 -0.3,-0.2 -8.2,-4.3 -8.2,-13.3 v -8.9 c 0,-1.1 0.9,-2 2,-2 1.1,0 2,0.9 2,2 v 8.9 c 0,4.4 2.6,7.2 4.5,8.6 C 65.4,54.1 66.2,51 66.2,48 66.2,37.9 58,29.7 47.9,29.7 37.8,29.7 29.7,37.9 29.7,48 c 0,10.1 8.2,18.3 18.3,18.3 2.9,0 5.8,-0.7 8.3,-2 1,-0.5 2.2,-0.1 2.7,0.9 0.5,1 0.1,2.2 -0.9,2.7 -3,1.6 -6.5,2.4 -10.1,2.4 z"
   inkscape:connector-curvature="0"
   style="fill:#ffffff" />
	<path
   id="XMLID_10_"
   class="st2"
   d="m 48,40.5 c 4.2,0 7.5,3.4 7.5,7.5 0,4.2 -3.4,7.5 -7.5,7.5 -4.1,0 -7.5,-3.4 -7.5,-7.5 0,-4.2 3.3,-7.5 7.5,-7.5 m 0,-4.1 c -6.4,0 -11.6,5.2 -11.6,11.6 0,6.4 5.2,11.6 11.6,11.6 6.4,0 11.6,-5.2 11.6,-11.6 0,-6.4 -5.2,-11.6 -11.6,-11.6 z"
   inkscape:connector-curvature="0"
   style="fill:#ffffff" />
</g>
</svg>