<?xml version="1.0" encoding="UTF-8" standalone="no"?>
<!-- Generator: Adobe Illustrator 19.0.0, SVG Export Plug-In . SVG Version: 6.00 Build 0)  -->

<svg
   xmlns:dc="http://purl.org/dc/elements/1.1/"
   xmlns:cc="http://creativecommons.org/ns#"
   xmlns:rdf="http://www.w3.org/1999/02/22-rdf-syntax-ns#"
   xmlns:svg="http://www.w3.org/2000/svg"
   xmlns="http://www.w3.org/2000/svg"
   xmlns:sodipodi="http://sodipodi.sourceforge.net/DTD/sodipodi-0.dtd"
   xmlns:inkscape="http://www.inkscape.org/namespaces/inkscape"
   version="1.1"
   id="Layer_1"
   x="0px"
   y="0px"
   viewBox="0 0 50.000001 50.000001"
   xml:space="preserve"
   sodipodi:docname="location_icon.svg"
   width="50"
   height="50"
   inkscape:version="0.92.4 5da689c313, 2019-01-14"><metadata
   id="metadata51"><rdf:RDF><cc:Work
       rdf:about=""><dc:format>image/svg+xml</dc:format><dc:type
         rdf:resource="http://purl.org/dc/dcmitype/StillImage" /><dc:title></dc:title></cc:Work></rdf:RDF></metadata><defs
   id="defs49" /><sodipodi:namedview
   pagecolor="#ffffff"
   bordercolor="#666666"
   borderopacity="1"
   objecttolerance="10"
   gridtolerance="10"
   guidetolerance="10"
   inkscape:pageopacity="0"
   inkscape:pageshadow="2"
   inkscape:window-width="1366"
   inkscape:window-height="703"
   id="namedview47"
   showgrid="false"
   inkscape:zoom="5.2149228"
   inkscape:cx="31.370395"
   inkscape:cy="40.756089"
   inkscape:window-x="0"
   inkscape:window-y="0"
   inkscape:window-maximized="1"
   inkscape:current-layer="Layer_1" />






<g
   id="g4806"
   transform="matrix(0.07439897,0,0,0.07439897,5.9538964,40.326125)"><path
     inkscape:connector-curvature="0"
     id="path2"
     d="M 180.648,49.480007 H 60.366 c -11.705,0 -21.194,-9.489 -21.194,-21.194 V -267.43899 c 0,-11.705 9.489,-21.194 21.194,-21.194 h 74.687 c 9.16,0 17.284,5.885 20.138,14.59 57.06,174.012 46.651,-7.038 46.651,302.328997 0,11.704 -9.489,21.194 -21.194,21.194 z"
     style="fill:#156b15;fill-opacity:1" /><path
     inkscape:connector-curvature="0"
     id="path4"
     d="M 159.454,49.480007 V -164.21099 c 0,-9.782 6.693,-18.292 16.199,-20.598 23.681,-5.731 20.609,11.716 80.346,112.322997 58.561,-98.630997 23.524,-106.582997 210.827,85.993 6.861,7.056 8.073,18.064 2.42,26.577 -8.798,13.247 3.52,9.396 -309.792,9.396 z"
     style="fill:#48aee2" /><path
     inkscape:connector-curvature="0"
     id="path6"
     d="M 466.826,13.509007 C 280.056,-178.51999 314.997,-171.84799 255.999,-72.485993 v 121.965 c 210.927,0 204.672,3.515 213.246,-9.395 5.654,-8.51 4.442,-19.52 -2.419,-26.575 z"
     style="fill:#39a3db" /><path
     inkscape:connector-curvature="0"
     id="path8"
     d="M 436.44,43.062007 C 282.004,-115.72099 280.607,-110.41499 288.061,-128.06399 c 7.294,-17.269 10.661,-12.948 163.571,-12.948 11.705,0 21.194,9.489 21.194,21.194 V 28.286007 c 10e-4,19.036 -23.201,28.335 -36.386,14.776 z"
     style="fill:#f59d00" /><path
     inkscape:connector-curvature="0"
     id="path10"
     d="m 472.827,-98.622993 c -179.701,0 -171.824,2.283 -180.227,-6.193997 -23.398,-23.607 26.316,-53.633 64.226,-169.284 2.847,-8.685 10.978,-14.531 20.12,-14.531 h 74.687 c 11.705,0 21.194,9.489 21.194,21.194 z"
     style="fill:#57bdb7" /><path
     inkscape:connector-curvature="0"
     id="path12"
     d="m 255.999,-461.99899 c -95.69,0 -177.366,90.591 -141.083,201.164 23.124,70.529 87.293,183.228997 123.115,240.493997 3.874,6.194 10.665,9.955 17.97,9.955 7.305,0 14.095,-3.763 17.97,-9.955 25.072,-40.082 97.496,-162.392997 123.115,-240.490997 v 0.001 c 36.141,-110.171 -45.073,-201.168 -141.087,-201.168 z m -0.001,226.722 c -41.711,0 -75.645,-33.94 -75.645,-75.659 0,-41.711 33.936,-75.647 75.645,-75.647 41.711,0 75.647,33.934 75.647,75.647 0,41.718 -33.935,75.659 -75.647,75.659 z"
     style="fill:#ff5e5b" /><path
     inkscape:connector-curvature="0"
     id="path14"
     d="m 255.999,-461.99899 v 75.416 c 41.711,10e-4 75.645,33.936 75.645,75.647 0,41.718 -33.934,75.658 -75.645,75.659 v 224.890997 c 7.305,0 14.094,-3.763 17.968,-9.955 25.072,-40.082 97.496,-162.392997 123.115,-240.490997 v 0.001 c 36.145,-110.171 -45.069,-201.168 -141.083,-201.168 z"
     style="fill:#ff423d" /></g>
<g
   id="g16"
   transform="translate(0,-461.99899)">
</g>
<g
   id="g18"
   transform="translate(0,-461.99899)">
</g>
<g
   id="g20"
   transform="translate(0,-461.99899)">
</g>
<g
   id="g22"
   transform="translate(0,-461.99899)">
</g>
<g
   id="g24"
   transform="translate(0,-461.99899)">
</g>
<g
   id="g26"
   transform="translate(0,-461.99899)">
</g>
<g
   id="g28"
   transform="translate(0,-461.99899)">
</g>
<g
   id="g30"
   transform="translate(0,-461.99899)">
</g>
<g
   id="g32"
   transform="translate(0,-461.99899)">
</g>
<g
   id="g34"
   transform="translate(0,-461.99899)">
</g>
<g
   id="g36"
   transform="translate(0,-461.99899)">
</g>
<g
   id="g38"
   transform="translate(0,-461.99899)">
</g>
<g
   id="g40"
   transform="translate(0,-461.99899)">
</g>
<g
   id="g42"
   transform="translate(0,-461.99899)">
</g>
<g
   id="g44"
   transform="translate(0,-461.99899)">
</g>
<path
   transform="matrix(0.71363164,0.70052116,-0.68384482,0.72962749,0,0)"
   style="opacity:1;fill:#ffaaaa;fill-opacity:0.98507464;stroke:none;stroke-width:6.11042547;stroke-miterlimit:4;stroke-dasharray:none;stroke-opacity:0.65671638"
   d="m 31.841964,-14.11782 c 10e-7,0.582691 -0.932952,0.719405 -2.097212,0.719405 -1.164261,10e-7 -2.118948,-0.136714 -2.118947,-0.719405 0,-0.582691 0.954687,-1.390706 2.118947,-1.390706 1.164259,0 2.097212,0.808015 2.097212,1.390706 z"
   id="path4808"
   inkscape:connector-curvature="0"
   sodipodi:nodetypes="sssss" /></svg>