<?xml version="1.0" encoding="UTF-8" standalone="no"?>
<!-- Generator: Adobe Illustrator 19.0.0, SVG Export Plug-In . SVG Version: 6.00 Build 0)  -->

<svg
   xmlns:dc="http://purl.org/dc/elements/1.1/"
   xmlns:cc="http://creativecommons.org/ns#"
   xmlns:rdf="http://www.w3.org/1999/02/22-rdf-syntax-ns#"
   xmlns:svg="http://www.w3.org/2000/svg"
   xmlns="http://www.w3.org/2000/svg"
   xmlns:sodipodi="http://sodipodi.sourceforge.net/DTD/sodipodi-0.dtd"
   xmlns:inkscape="http://www.inkscape.org/namespaces/inkscape"
   version="1.1"
   id="Layer_1"
   x="0px"
   y="0px"
   viewBox="0 0 50.000002 50.000002"
   xml:space="preserve"
   sodipodi:docname="mobile_icon.svg"
   width="50"
   height="50"
   inkscape:version="0.92.4 5da689c313, 2019-01-14"><metadata
   id="metadata69"><rdf:RDF><cc:Work
       rdf:about=""><dc:format>image/svg+xml</dc:format><dc:type
         rdf:resource="http://purl.org/dc/dcmitype/StillImage" /><dc:title></dc:title></cc:Work></rdf:RDF></metadata><defs
   id="defs67" /><sodipodi:namedview
   pagecolor="#ffffff"
   bordercolor="#666666"
   borderopacity="1"
   objecttolerance="10"
   gridtolerance="10"
   guidetolerance="10"
   inkscape:pageopacity="0"
   inkscape:pageshadow="2"
   inkscape:window-width="1366"
   inkscape:window-height="703"
   id="namedview65"
   showgrid="false"
   inkscape:zoom="5.2149026"
   inkscape:cx="32.158919"
   inkscape:cy="30.014341"
   inkscape:window-x="0"
   inkscape:window-y="0"
   inkscape:window-maximized="1"
   inkscape:current-layer="Layer_1" />




<g
   id="g4858"
   transform="matrix(0.08007151,0,0,0.08007151,4.5015701,40.799913)"><g
     transform="translate(0,-462.00098)"
     id="g6">
	<path
   inkscape:connector-curvature="0"
   id="path2"
   d="m 145.636,244.784 c -4.713,0 -8.533,-3.82 -8.533,-8.533 v -21.618 c 0,-4.714 3.821,-8.533 8.533,-8.533 4.712,0 25.256,0 25.256,0 v 38.684 c 0,0 -20.543,0 -25.256,0 z"
   style="fill:#0299d1" />
	<path
   inkscape:connector-curvature="0"
   id="path4"
   d="M 344.182,21.821559 V 206.666 h 30.717 V 21.821559 c -10e-4,-5.954125 -30.717,-5.954125 -30.717,0 z"
   style="fill:#0299d1;stroke-width:0.95708895" />
</g><path
     inkscape:connector-curvature="0"
     id="path8"
     d="m 362.297,-379.00398 c -3.728,-10.605 -16.011,-19.282 -27.296,-19.282 H 194.067 c -11.286,0 -23.569,8.677 -27.296,19.282 0,0 -12.601,25.704 -12.601,123.67 0,88.216 0,265.612003 0,265.612003 0,11.236 8.572,23.843 19.05,28.018 0,0 29.379,11.704 91.315,11.704 61.936,0 91.315,-11.704 91.315,-11.704 10.478,-4.175 19.05,-16.782 19.05,-28.018 0,0 0,-177.395003 0,-265.612003 -0.002,-97.966 -12.603,-123.67 -12.603,-123.67 z"
     style="fill:#fe604f" /><g
     transform="translate(0,-420.00098)"
     id="g28">
	<path
   inkscape:connector-curvature="0"
   id="path10"
   d="m 271.567,328.41 h -14.066 c -4.713,0 -8.533,-3.82 -8.533,-8.533 0,-4.714 3.821,-8.533 8.533,-8.533 h 14.066 c 4.713,0 8.533,3.82 8.533,8.533 10e-4,4.714 -3.82,8.533 -8.533,8.533 z"
   style="fill:#ffce78" />
	<path
   inkscape:connector-curvature="0"
   id="path12"
   d="m 271.567,365.388 h -14.066 c -4.713,0 -8.533,-3.819 -8.533,-8.533 0,-4.714 3.821,-8.533 8.533,-8.533 h 14.066 c 4.713,0 8.533,3.82 8.533,8.533 10e-4,4.713 -3.82,8.533 -8.533,8.533 z"
   style="fill:#ffce78" />
	<path
   inkscape:connector-curvature="0"
   id="path14"
   d="m 271.567,402.366 h -14.066 c -4.713,0 -8.533,-3.82 -8.533,-8.533 0,-4.713 3.821,-8.533 8.533,-8.533 h 14.066 c 4.713,0 8.533,3.82 8.533,8.533 0,4.713 -3.82,8.533 -8.533,8.533 z"
   style="fill:#ffce78" />
	<path
   inkscape:connector-curvature="0"
   id="path16"
   d="m 218.298,328.41 h -14.066 c -4.713,0 -8.533,-3.82 -8.533,-8.533 0,-4.714 3.821,-8.533 8.533,-8.533 h 14.066 c 4.713,0 8.533,3.82 8.533,8.533 0,4.714 -3.82,8.533 -8.533,8.533 z"
   style="fill:#ffce78" />
	<path
   inkscape:connector-curvature="0"
   id="path18"
   d="m 218.298,365.388 h -14.066 c -4.713,0 -8.533,-3.819 -8.533,-8.533 0,-4.714 3.821,-8.533 8.533,-8.533 h 14.066 c 4.713,0 8.533,3.82 8.533,8.533 0,4.713 -3.82,8.533 -8.533,8.533 z"
   style="fill:#ffce78" />
	<path
   inkscape:connector-curvature="0"
   id="path20"
   d="m 218.298,402.366 h -14.066 c -4.713,0 -8.533,-3.82 -8.533,-8.533 0,-4.713 3.821,-8.533 8.533,-8.533 h 14.066 c 4.713,0 8.533,3.82 8.533,8.533 0,4.713 -3.82,8.533 -8.533,8.533 z"
   style="fill:#ffce78" />
	<path
   inkscape:connector-curvature="0"
   id="path22"
   d="M 324.836,328.41 H 310.77 c -4.713,0 -8.533,-3.82 -8.533,-8.533 0,-4.714 3.821,-8.533 8.533,-8.533 h 14.066 c 4.713,0 8.533,3.82 8.533,8.533 0,4.714 -3.82,8.533 -8.533,8.533 z"
   style="fill:#ffce78" />
	<path
   inkscape:connector-curvature="0"
   id="path24"
   d="M 324.836,365.388 H 310.77 c -4.713,0 -8.533,-3.819 -8.533,-8.533 0,-4.714 3.821,-8.533 8.533,-8.533 h 14.066 c 4.713,0 8.533,3.82 8.533,8.533 0,4.713 -3.82,8.533 -8.533,8.533 z"
   style="fill:#ffce78" />
	<path
   inkscape:connector-curvature="0"
   id="path26"
   d="M 324.836,402.366 H 310.77 c -4.713,0 -8.533,-3.82 -8.533,-8.533 0,-4.713 3.821,-8.533 8.533,-8.533 h 14.066 c 4.713,0 8.533,3.82 8.533,8.533 0,4.713 -3.82,8.533 -8.533,8.533 z"
   style="fill:#ffce78" />
</g><circle
     id="circle30"
     r="22.360531"
     cy="-347.58398"
     cx="264.534"
     style="fill:#ff385c;stroke-width:0.59553444" /><rect
     id="rect32"
     height="164.25433"
     width="157.013"
     style="fill:#9bffb4;stroke-width:1.43609071"
     y="-310.14136"
     x="186.02699" /></g>
<g
   id="g34"
   transform="translate(0,-462.00098)">
</g>
<g
   id="g36"
   transform="translate(0,-462.00098)">
</g>
<g
   id="g38"
   transform="translate(0,-462.00098)">
</g>
<g
   id="g40"
   transform="translate(0,-462.00098)">
</g>
<g
   id="g42"
   transform="translate(0,-462.00098)">
</g>
<g
   id="g44"
   transform="translate(0,-462.00098)">
</g>
<g
   id="g46"
   transform="translate(0,-462.00098)">
</g>
<g
   id="g48"
   transform="translate(0,-462.00098)">
</g>
<g
   id="g50"
   transform="translate(0,-462.00098)">
</g>
<g
   id="g52"
   transform="translate(0,-462.00098)">
</g>
<g
   id="g54"
   transform="translate(0,-462.00098)">
</g>
<g
   id="g56"
   transform="translate(0,-462.00098)">
</g>
<g
   id="g58"
   transform="translate(0,-462.00098)">
</g>
<g
   id="g60"
   transform="translate(0,-462.00098)">
</g>
<g
   id="g62"
   transform="translate(0,-462.00098)">
</g>
</svg>