<?xml version="1.0" encoding="UTF-8" standalone="no"?>
<!-- Generator: Adobe Illustrator 19.0.0, SVG Export Plug-In . SVG Version: 6.00 Build 0)  -->

<svg
   xmlns:dc="http://purl.org/dc/elements/1.1/"
   xmlns:cc="http://creativecommons.org/ns#"
   xmlns:rdf="http://www.w3.org/1999/02/22-rdf-syntax-ns#"
   xmlns:svg="http://www.w3.org/2000/svg"
   xmlns="http://www.w3.org/2000/svg"
   xmlns:sodipodi="http://sodipodi.sourceforge.net/DTD/sodipodi-0.dtd"
   xmlns:inkscape="http://www.inkscape.org/namespaces/inkscape"
   version="1.1"
   id="Layer_1"
   x="0px"
   y="0px"
   viewBox="0 0 50 50"
   xml:space="preserve"
   sodipodi:docname="telephone_icon.svg"
   width="50"
   height="50"
   inkscape:version="0.92.4 5da689c313, 2019-01-14"><metadata
   id="metadata67"><rdf:RDF><cc:Work
       rdf:about=""><dc:format>image/svg+xml</dc:format><dc:type
         rdf:resource="http://purl.org/dc/dcmitype/StillImage" /><dc:title></dc:title></cc:Work></rdf:RDF></metadata><defs
   id="defs65" /><sodipodi:namedview
   pagecolor="#ffffff"
   bordercolor="#666666"
   borderopacity="1"
   objecttolerance="10"
   gridtolerance="10"
   guidetolerance="10"
   inkscape:pageopacity="0"
   inkscape:pageshadow="2"
   inkscape:window-width="1366"
   inkscape:window-height="703"
   id="namedview63"
   showgrid="false"
   inkscape:zoom="7.375"
   inkscape:cx="48.238452"
   inkscape:cy="38.46582"
   inkscape:window-x="0"
   inkscape:window-y="0"
   inkscape:window-maximized="1"
   inkscape:current-layer="Layer_1" />



<g
   id="g4824"
   transform="matrix(0.31689735,0,0,0.31689735,-56.125899,90.281012)"><g
     transform="matrix(0.23729014,0,0,0.23729014,195.25414,-266.74666)"
     id="g6">
	<path
   inkscape:connector-curvature="0"
   id="path2"
   d="M 495.368,99.538 C 470.173,69.229 348.243,43.597 256.001,43.597 c -92.242,0 -214.172,25.631 -239.367,55.94 -18.822,22.644 -16.548,77.202 -16.548,77.202 0,0 29.069,3.484 59.463,3.484 30.394,0 59.463,-3.484 59.463,-3.484 v -47.431 h 273.977 v 47.431 c 0,0 29.069,3.484 59.463,3.484 30.393,0 59.463,-3.484 59.463,-3.484 0,0 2.275,-54.557 -16.547,-77.201 z"
   style="fill:#c20c3f" />
	<polygon
   id="polygon4"
   points="256.001,354.93 470.608,389.063 470.608,459.867 41.393,459.867 41.393,389.063 "
   style="fill:#c20c3f" />
</g><path
     inkscape:connector-curvature="0"
     id="path8"
     d="m 298.20176,-215.03686 8.72326,40.61102 H 205.07629 l 8.72326,-40.61102 18.70725,-3.65024 v -22.25473 c 0,-0.7776 0.62905,-1.40926 1.40665,-1.40926 h 5.32147 c 0.7776,0 1.40666,0.63166 1.40666,1.40926 v 11.45542 h 30.71863 v -11.45542 c 0,-0.7776 0.62906,-1.40926 1.40666,-1.40926 h 5.32146 c 0.7776,0 1.40666,0.63166 1.40666,1.40926 v 22.25473 z"
     style="fill:#ff385c;stroke-width:0.23729013" /><path
     inkscape:connector-curvature="0"
     id="path10"
     d="M 306.80898,-155.59948 H 205.19209 c -1.11858,0 -2.02479,-0.90669 -2.02479,-2.0248 0,-1.11811 0.90644,-2.0248 2.02479,-2.0248 h 101.61713 c 1.11859,0 2.0248,0.90669 2.0248,2.0248 0,1.11811 -0.90645,2.0248 -2.02504,2.0248 z"
     style="fill:#750c20;stroke-width:0.23729013" /><g
     transform="matrix(0.23729014,0,0,0.23729014,195.25414,-266.74666)"
     id="g30">
	<path
   inkscape:connector-curvature="0"
   id="path12"
   d="m 210.347,328.226 h -12.231 c -4.714,0 -8.533,-3.821 -8.533,-8.533 0,-4.712 3.82,-8.533 8.533,-8.533 h 12.231 c 4.714,0 8.533,3.821 8.533,8.533 0,4.712 -3.819,8.533 -8.533,8.533 z"
   style="fill:#ffffff" />
	<path
   inkscape:connector-curvature="0"
   id="path14"
   d="m 313.885,328.226 h -12.231 c -4.714,0 -8.533,-3.821 -8.533,-8.533 0,-4.712 3.82,-8.533 8.533,-8.533 h 12.231 c 4.714,0 8.533,3.821 8.533,8.533 0,4.712 -3.819,8.533 -8.533,8.533 z"
   style="fill:#ffffff" />
	<path
   inkscape:connector-curvature="0"
   id="path16"
   d="m 263.35,328.226 h -12.232 c -4.714,0 -8.533,-3.821 -8.533,-8.533 0,-4.712 3.82,-8.533 8.533,-8.533 h 12.232 c 4.714,0 8.533,3.821 8.533,8.533 0,4.712 -3.819,8.533 -8.533,8.533 z"
   style="fill:#ffffff" />
	<path
   inkscape:connector-curvature="0"
   id="path18"
   d="m 210.347,281.577 h -12.231 c -4.714,0 -8.533,-3.821 -8.533,-8.533 0,-4.712 3.82,-8.533 8.533,-8.533 h 12.231 c 4.714,0 8.533,3.821 8.533,8.533 0,4.712 -3.819,8.533 -8.533,8.533 z"
   style="fill:#ffffff" />
	<path
   inkscape:connector-curvature="0"
   id="path20"
   d="m 313.885,281.577 h -12.231 c -4.714,0 -8.533,-3.821 -8.533,-8.533 0,-4.712 3.82,-8.533 8.533,-8.533 h 12.231 c 4.714,0 8.533,3.821 8.533,8.533 0,4.712 -3.819,8.533 -8.533,8.533 z"
   style="fill:#ffffff" />
	<path
   inkscape:connector-curvature="0"
   id="path22"
   d="m 263.35,281.577 h -12.232 c -4.714,0 -8.533,-3.821 -8.533,-8.533 0,-4.712 3.82,-8.533 8.533,-8.533 h 12.232 c 4.714,0 8.533,3.821 8.533,8.533 0,4.712 -3.819,8.533 -8.533,8.533 z"
   style="fill:#ffffff" />
	<path
   inkscape:connector-curvature="0"
   id="path24"
   d="m 210.347,234.928 h -12.231 c -4.714,0 -8.533,-3.821 -8.533,-8.533 0,-4.712 3.82,-8.533 8.533,-8.533 h 12.231 c 4.714,0 8.533,3.821 8.533,8.533 0,4.712 -3.819,8.533 -8.533,8.533 z"
   style="fill:#ffffff" />
	<path
   inkscape:connector-curvature="0"
   id="path26"
   d="m 313.885,234.928 h -12.231 c -4.714,0 -8.533,-3.821 -8.533,-8.533 0,-4.712 3.82,-8.533 8.533,-8.533 h 12.231 c 4.714,0 8.533,3.821 8.533,8.533 0,4.712 -3.819,8.533 -8.533,8.533 z"
   style="fill:#ffffff" />
	<path
   inkscape:connector-curvature="0"
   id="path28"
   d="m 263.35,234.928 h -12.232 c -4.714,0 -8.533,-3.821 -8.533,-8.533 0,-4.712 3.82,-8.533 8.533,-8.533 h 12.232 c 4.714,0 8.533,3.821 8.533,8.533 0,4.712 -3.819,8.533 -8.533,8.533 z"
   style="fill:#ffffff" />
</g></g>
<g
   id="g32"
   transform="translate(0,-462)">
</g>
<g
   id="g34"
   transform="translate(0,-462)">
</g>
<g
   id="g36"
   transform="translate(0,-462)">
</g>
<g
   id="g38"
   transform="translate(0,-462)">
</g>
<g
   id="g40"
   transform="translate(0,-462)">
</g>
<g
   id="g42"
   transform="translate(0,-462)">
</g>
<g
   id="g44"
   transform="translate(0,-462)">
</g>
<g
   id="g46"
   transform="translate(0,-462)">
</g>
<g
   id="g48"
   transform="translate(0,-462)">
</g>
<g
   id="g50"
   transform="translate(0,-462)">
</g>
<g
   id="g52"
   transform="translate(0,-462)">
</g>
<g
   id="g54"
   transform="translate(0,-462)">
</g>
<g
   id="g56"
   transform="translate(0,-462)">
</g>
<g
   id="g58"
   transform="translate(0,-462)">
</g>
<g
   id="g60"
   transform="translate(0,-462)">
</g>
</svg>