<?xml version="1.0" encoding="UTF-8" standalone="no"?>
<!-- www.vectorico.com -->

<svg
   xmlns:dc="http://purl.org/dc/elements/1.1/"
   xmlns:cc="http://creativecommons.org/ns#"
   xmlns:rdf="http://www.w3.org/1999/02/22-rdf-syntax-ns#"
   xmlns:svg="http://www.w3.org/2000/svg"
   xmlns="http://www.w3.org/2000/svg"
   xmlns:sodipodi="http://sodipodi.sourceforge.net/DTD/sodipodi-0.dtd"
   xmlns:inkscape="http://www.inkscape.org/namespaces/inkscape"
   version="1.1"
   id="Twitter"
   x="0px"
   y="0px"
   viewBox="0 0 50 50"
   xml:space="preserve"
   sodipodi:docname="Twitter_icon.svg"
   width="50"
   height="50"
   inkscape:version="0.92.4 5da689c313, 2019-01-14"><metadata
   id="metadata13"><rdf:RDF><cc:Work
       rdf:about=""><dc:format>image/svg+xml</dc:format><dc:type
         rdf:resource="http://purl.org/dc/dcmitype/StillImage" /><dc:title>Twitter Logo</dc:title></cc:Work></rdf:RDF></metadata><defs
   id="defs11" /><sodipodi:namedview
   pagecolor="#ffffff"
   bordercolor="#666666"
   borderopacity="1"
   objecttolerance="10"
   gridtolerance="10"
   guidetolerance="10"
   inkscape:pageopacity="0"
   inkscape:pageshadow="2"
   inkscape:window-width="1366"
   inkscape:window-height="703"
   id="namedview9"
   showgrid="false"
   inkscape:zoom="7.375"
   inkscape:cx="38.590466"
   inkscape:cy="20.32467"
   inkscape:window-x="0"
   inkscape:window-y="0"
   inkscape:window-maximized="1"
   inkscape:current-layer="Twitter" />
<style
   type="text/css"
   id="style2">
	.st0{fill:#1DA1F2;}
</style>
<title
   id="title4">Twitter Logo</title>
<path
   class="st0"
   d="m 18.229497,39.728814 c 13.683543,0 21.142974,-11.355441 21.142974,-21.142975 0,-0.332586 0,-0.665172 0,-0.950246 1.472882,-1.045271 2.708201,-2.375615 3.70596,-3.848496 -1.330345,0.570147 -2.755714,0.997758 -4.276107,1.187807 1.520393,-0.902734 2.708201,-2.375615 3.278348,-4.13357 -1.425369,0.855221 -3.040787,1.472881 -4.703717,1.805467 -1.377857,-1.472881 -3.278349,-2.375615 -5.416403,-2.375615 -4.13357,0 -7.459431,3.325861 -7.459431,7.459432 0,0.570147 0.04751,1.140295 0.190049,1.710443 -6.176599,-0.332586 -11.640514,-3.278349 -15.346473,-7.792018 -0.61766,1.092783 -0.997759,2.375615 -0.997759,3.70596 0,2.565664 1.330345,4.846255 3.325861,6.176599 -1.23532,-0.04751 -2.375615,-0.380098 -3.373373,-0.950246 0,0.04751 0,0.04751 0,0.09502 0,3.610934 2.565664,6.604209 5.98655,7.269382 -0.61766,0.190049 -1.282832,0.285074 -1.948004,0.285074 -0.475123,0 -0.950246,-0.04751 -1.377857,-0.142537 0.950246,2.945762 3.705959,5.083816 6.936796,5.178841 -2.565664,1.995516 -5.748989,3.183324 -9.217387,3.183324 -0.61766,0 -1.187807,-0.04751 -1.757955,-0.09502 3.230837,2.138054 7.126845,3.373374 11.307928,3.373374"
   id="path6"
   inkscape:connector-curvature="0"
   style="fill:#1da1f2;stroke-width:0.47512302" />
</svg>