<?xml version="1.0" encoding="UTF-8" standalone="no"?>
<svg
   xmlns:dc="http://purl.org/dc/elements/1.1/"
   xmlns:cc="http://creativecommons.org/ns#"
   xmlns:rdf="http://www.w3.org/1999/02/22-rdf-syntax-ns#"
   xmlns:svg="http://www.w3.org/2000/svg"
   xmlns="http://www.w3.org/2000/svg"
   xmlns:sodipodi="http://sodipodi.sourceforge.net/DTD/sodipodi-0.dtd"
   xmlns:inkscape="http://www.inkscape.org/namespaces/inkscape"
   height="50"
   style="clip-rule:evenodd;fill-rule:evenodd;stroke-linejoin:round;stroke-miterlimit:1.41420996"
   version="1.1"
   viewBox="0 0 24 1200"
   width="50"
   xml:space="preserve"
   id="svg9"
   sodipodi:docname="youtube_icon.svg"
   inkscape:version="0.92.4 5da689c313, 2019-01-14"><metadata
     id="metadata15"><rdf:RDF><cc:Work
         rdf:about=""><dc:format>image/svg+xml</dc:format><dc:type
           rdf:resource="http://purl.org/dc/dcmitype/StillImage" /><dc:title></dc:title></cc:Work></rdf:RDF></metadata><defs
     id="defs13" /><sodipodi:namedview
     pagecolor="#ffffff"
     bordercolor="#666666"
     borderopacity="1"
     objecttolerance="10"
     gridtolerance="10"
     guidetolerance="10"
     inkscape:pageopacity="0"
     inkscape:pageshadow="2"
     inkscape:window-width="1366"
     inkscape:window-height="703"
     id="namedview11"
     showgrid="false"
     units="px"
     inkscape:zoom="4.9166667"
     inkscape:cx="29.004006"
     inkscape:cy="27.276433"
     inkscape:window-x="0"
     inkscape:window-y="0"
     inkscape:window-maximized="1"
     inkscape:current-layer="svg9" /><g
     id="g7"
     transform="matrix(44.893351,0,0,44.893351,-526.72021,61.279818)"><path
       d="M 2.093,9.075 C 2.218,7.134 3.722,5.566 5.655,5.359 7.66,5.157 9.791,5.048 12,5.048 c 2.209,0 4.34,0.109 6.345,0.312 1.933,0.206 3.437,1.774 3.562,3.715 C 21.968,10.031 22,11.008 22,12 c 0,0.992 -0.032,1.969 -0.093,2.925 -0.125,1.941 -1.629,3.509 -3.562,3.716 C 16.34,18.843 14.209,18.952 12,18.952 9.791,18.952 7.66,18.843 5.655,18.64 3.722,18.434 2.218,16.866 2.093,14.925 2.032,13.969 2,12.992 2,12 2,11.008 2.032,10.031 2.093,9.075 Z"
       style="fill:#ff0000"
       id="path3"
       inkscape:connector-curvature="0" /><path
       d="m 15.055,12 -4.909,2.995 v -5.99 z"
       style="fill:#ffffff"
       id="path5"
       inkscape:connector-curvature="0" /></g></svg>